<?xml version="1.0" encoding="UTF-8" standalone="no"?>
<!-- Created with Inkscape (http://www.inkscape.org/) -->

<svg
   xmlns:dc="http://purl.org/dc/elements/1.1/"
   xmlns:cc="http://creativecommons.org/ns#"
   xmlns:rdf="http://www.w3.org/1999/02/22-rdf-syntax-ns#"
   xmlns:svg="http://www.w3.org/2000/svg"
   xmlns="http://www.w3.org/2000/svg"
   xmlns:sodipodi="http://sodipodi.sourceforge.net/DTD/sodipodi-0.dtd"
   xmlns:inkscape="http://www.inkscape.org/namespaces/inkscape"
   width="210mm"
   height="297mm"
   viewBox="0 0 210 297"
   version="1.1"
   id="svg8"
   inkscape:version="0.92.3 (2405546, 2018-03-11)"
   sodipodi:docname="rf.svg">
  <defs
     id="defs2" />
  <sodipodi:namedview
     id="base"
     pagecolor="#ffffff"
     bordercolor="#666666"
     borderopacity="1.0"
     inkscape:pageopacity="0.0"
     inkscape:pageshadow="2"
     inkscape:zoom="0.35"
     inkscape:cx="-37.142857"
     inkscape:cy="560"
     inkscape:document-units="mm"
     inkscape:current-layer="layer1"
     showgrid="false"
     inkscape:window-width="1920"
     inkscape:window-height="1057"
     inkscape:window-x="-8"
     inkscape:window-y="-8"
     inkscape:window-maximized="1" />
  <metadata
     id="metadata5">
    <rdf:RDF>
      <cc:Work
         rdf:about="">
        <dc:format>image/svg+xml</dc:format>
        <dc:type
           rdf:resource="http://purl.org/dc/dcmitype/StillImage" />
        <dc:title></dc:title>
      </cc:Work>
    </rdf:RDF>
  </metadata>
  <g
     inkscape:label="Capa 1"
     inkscape:groupmode="layer"
     id="layer1">
    <g
       id="g21"
       transform="translate(-0.75594857,16.630953)">
      <path
         style="fill:#fcfcfc;stroke-width:0.33117697"
         d="m 107.18994,211.22603 c -9.469247,-1.45057 -15.974702,-6.05269 -19.997513,-14.14675 -3.524162,-7.09075 -4.643584,-14.09924 -6.351025,-39.76249 -0.84189,-12.65381 -3.201359,-20.37664 -7.928972,-25.95249 -3.359319,-3.96206 -7.669182,-6.39283 -13.804955,-7.78602 -2.688747,-0.61051 -4.484272,-0.70442 -16.804141,-0.87892 l -13.79373,-0.19538 0.04356,-0.82495 c 0.02396,-0.45372 0.06135,-1.45603 0.0831,-2.22736 l 0.03953,-1.40241 10.553035,-0.002 c 11.512394,-0.002 15.208595,-0.34093 19.128122,-1.75337 5.454433,-1.96556 9.483472,-5.67089 12.162945,-11.18572 2.827592,-5.819688 4.007066,-12.373424 4.017719,-22.324386 0.01034,-9.67078 -1.067771,-15.411237 -4.032732,-21.472252 -1.455043,-2.97442 -2.080384,-3.83782 -4.569258,-6.308725 -2.343917,-2.326994 -3.40986,-3.112944 -5.696276,-4.200035 -6.194329,-2.945099 -11.171326,-3.697579 -23.337174,-3.52835 l -8.226381,0.114431 -0.04155,-1.462487 c -0.0522,-1.837318 -0.0522,-2.367852 0,-2.782404 0.02697,-0.214157 4.995297,-0.329979 14.154943,-0.329979 12.101506,0 14.841446,0.09281 19.220633,0.651027 12.853294,1.63843 20.985057,5.163739 28.183393,12.218162 5.006632,4.906534 7.733613,9.510714 9.5364,16.101068 0.834927,3.052199 0.876107,3.582664 0.876107,11.287206 0,7.749232 -0.0372,8.22133 -0.897695,11.384283 -3.555342,13.069001 -13.017695,21.212211 -28.776331,24.764621 -1.895421,0.42728 -3.510215,0.8404 -3.58843,0.91806 -0.07822,0.0777 0.575158,0.24321 1.451941,0.36793 2.550089,0.36271 8.335442,1.81663 11.389237,2.86224 12.762006,4.36966 21.156728,12.68974 24.092048,23.87783 1.16055,4.42347 1.917,12.42852 2.51073,26.56932 0.52331,12.46358 0.99915,16.22888 2.71058,21.44865 1.60168,4.88505 3.77917,7.87686 6.95926,9.56184 1.91802,1.01627 2.38882,1.12638 4.7863,1.11939 3.76626,-0.011 6.97895,-1.0657 12.055,-3.95762 l 1.08649,-0.619 1.14375,1.31992 c 0.62906,0.72595 1.10012,1.4677 1.0468,1.64832 -0.0533,0.18063 -1.2875,1.23044 -2.74262,2.33292 -5.00402,3.79134 -9.85751,5.1167 -18.53269,5.06081 -2.76388,-0.0178 -6.41345,-0.24504 -8.11015,-0.50495 z m 40.00631,-57.61076 c -0.99351,-14.32083 -6.14286,-23.25437 -15.71023,-27.25548 -4.31243,-1.80347 -6.59497,-2.11037 -16.97334,-2.28216 l -9.72209,-0.16093 v -2.39053 -2.39053 l 8.72495,-0.19848 c 4.79873,-0.10917 9.76413,-0.35716 11.03424,-0.55109 7.23109,-1.10412 11.44464,-2.94153 15.14984,-6.60641 4.65737,-4.60669 6.81914,-10.78595 7.49766,-21.431433 l 0.23244,-3.646989 h 1.78079 1.78077 v 35.142782 35.14279 h -1.78057 -1.78057 z m 32.09462,-73.251554 c -0.8336,-8.457066 -3.26363,-14.405222 -7.91625,-19.377167 -5.95694,-6.36577 -13.68627,-9.832928 -25.02793,-11.226814 -1.54907,-0.190381 -7.24581,-0.346148 -12.65942,-0.346148 -5.4136,0 -14.13001,-0.09815 -19.3698,-0.218109 l -9.52688,-0.218109 v -2.093114 -2.093114 l 38.80526,0.08386 38.80525,0.08386 -0.0271,0.989938 c -0.0149,0.544465 -0.0523,9.416781 -0.0831,19.716257 l -0.056,18.72632 h -1.27352 -1.27352 z"
         id="path25"
         inkscape:connector-curvature="0" />
      <path
         style="fill:#181818;stroke-width:0.33117697"
         d="M 0.75595307,127.28868 V 23.34523 H 105.45535 210.15475 V 127.28868 231.23213 H 105.45535 0.75595307 Z M 123.24089,211.2586 c 3.95221,-0.68423 7.42391,-2.18818 10.59189,-4.58843 1.45512,-1.10248 2.6893,-2.15229 2.74262,-2.33292 0.0533,-0.18062 -0.41774,-0.92237 -1.0468,-1.64832 l -1.14375,-1.31992 -1.08649,0.619 c -5.07605,2.89192 -8.28874,3.94664 -12.055,3.95762 -2.39748,0.007 -2.86828,-0.10312 -4.7863,-1.11939 -3.18009,-1.68498 -5.35758,-4.67679 -6.95926,-9.56184 -1.71143,-5.21977 -2.18727,-8.98507 -2.71058,-21.44865 -0.59373,-14.1408 -1.35018,-22.14585 -2.51073,-26.56932 -2.93532,-11.18809 -11.33004,-19.50817 -24.092046,-23.87783 -3.053795,-1.04561 -8.839148,-2.49953 -11.389237,-2.86224 -0.876783,-0.12472 -1.530157,-0.29028 -1.451941,-0.36793 0.07822,-0.0777 1.693009,-0.49078 3.58843,-0.91806 15.758636,-3.55241 25.220989,-11.69562 28.776331,-24.764621 0.860463,-3.162953 0.897693,-3.635051 0.897693,-11.384283 0,-7.704542 -0.0412,-8.235007 -0.876105,-11.287206 C 97.926828,65.193906 95.199847,60.589726 90.193215,55.683192 82.994879,48.628769 74.863116,45.10346 62.009822,43.46503 57.630635,42.906809 54.890695,42.814003 42.789189,42.814003 c -9.159646,0 -14.127979,0.115822 -14.154943,0.329979 -0.0522,0.414552 -0.0522,0.945086 0,2.782404 l 0.04155,1.462487 8.226381,-0.114431 c 12.165848,-0.169229 17.142845,0.583251 23.337174,3.528383 2.286416,1.087091 3.352359,1.873041 5.696276,4.200035 2.488874,2.470905 3.114215,3.334305 4.569258,6.308725 2.964961,6.061015 4.043082,11.801472 4.032732,21.472252 -0.01064,9.950962 -1.190127,16.504698 -4.017719,22.324383 -2.679473,5.51484 -6.708512,9.22017 -12.162945,11.18572 -3.919527,1.41244 -7.615728,1.75125 -19.128122,1.75338 l -10.553035,0.002 -0.03953,1.40241 c -0.02175,0.77133 -0.05914,1.77364 -0.0831,2.22736 l -0.04356,0.82495 13.79373,0.19538 c 12.319869,0.1745 14.115394,0.26841 16.804141,0.87892 6.135773,1.39319 10.445636,3.82396 13.804955,7.78602 4.727613,5.57585 7.087082,13.29868 7.928972,25.95249 1.707441,25.66325 2.826863,32.67174 6.351025,39.76249 4.022811,8.09406 10.528266,12.69618 19.997511,14.14675 4.23301,0.64844 12.39787,0.66501 16.05095,0.0326 z m 27.75039,-89.41458 V 86.701238 h -1.78077 -1.78079 l -0.23244,3.646989 c -0.67852,10.645483 -2.84029,16.824743 -7.49766,21.431433 -3.7052,3.66488 -7.91875,5.50229 -15.14984,6.60641 -1.27011,0.19393 -6.23551,0.44192 -11.03424,0.55109 l -8.72495,0.19848 v 2.39053 2.39053 l 9.72209,0.16093 c 8.475,0.14028 10.07666,0.25076 12.48622,0.86126 12.72502,3.2241 19.0551,12.21161 20.19735,28.67638 l 0.23389,3.37154 h 1.78057 1.78057 z m 31.29959,-56.178957 c 0.0308,-10.299476 0.0682,-19.171792 0.0831,-19.716257 l 0.0271,-0.989938 -38.80525,-0.08386 -38.80526,-0.08386 v 2.093114 2.093114 l 9.52688,0.218109 c 5.23979,0.11996 13.9562,0.218109 19.3698,0.218109 10.05997,0 13.20673,0.22331 18.46734,1.310541 12.3843,2.559511 21.26256,9.580242 25.0489,19.808129 1.12443,3.037402 1.6718,5.615477 2.08736,9.831459 l 0.397,4.027667 h 1.27352 1.27352 z"
         id="path23"
         inkscape:connector-curvature="0" />
    </g>
  </g>
</svg>
